<svg xmlns="http://www.w3.org/2000/svg" viewBox="0 0 600 420" preserveAspectRatio="xMidYMid slice" role="img" aria-label="PERGOLA">
  <defs>
    <linearGradient id="bg" x1="0" y1="0" x2="1" y2="1">
      <stop offset="0%" stop-color="#1f2630"/>
      <stop offset="55%" stop-color="#161b22"/>
      <stop offset="100%" stop-color="#0e1217"/>
    </linearGradient>
    <linearGradient id="gold" x1="0" y1="0" x2="1" y2="1">
      <stop offset="0%" stop-color="#d4a531"/>
      <stop offset="100%" stop-color="#b8862a"/>
    </linearGradient>
    <pattern id="grain" width="6" height="6" patternUnits="userSpaceOnUse" patternTransform="rotate(8)">
      <rect width="6" height="6" fill="none"/>
      <line x1="0" y1="0" x2="0" y2="6" stroke="#ffffff" stroke-opacity="0.018" stroke-width="3"/>
    </pattern>
  </defs>
  <rect width="600" height="420" fill="url(#bg)"/>
  <rect width="600" height="420" fill="url(#grain)"/>
  <g opacity="0.10" transform="translate(300.0,176.4)">
    <path d="M50 6 L88 28 L88 72 L50 94 L12 72 L12 28 Z" transform="translate(-150,-150) scale(3)" fill="none" stroke="#d4a531" stroke-width="3"/>
  </g>
  <g transform="translate(300.0,168.0)">
    <path d="M50 6 L88 28 L88 72 L50 94 L12 72 L12 28 Z" transform="translate(-44,-44) scale(0.88)" fill="none" stroke="url(#gold)" stroke-width="4"/>
    <text x="0" y="10" text-anchor="middle" font-family="Georgia, serif" font-size="30" font-weight="700" fill="url(#gold)">EG</text>
  </g>
  <text x="300.0" y="294.0" text-anchor="middle" font-family="Arial, Helvetica, sans-serif" font-size="18" letter-spacing="3" font-weight="800" fill="#f2eee6">PERGOLA</text>
  <text x="300.0" y="314.0" text-anchor="middle" font-family="Arial, Helvetica, sans-serif" font-size="10" letter-spacing="2" fill="#9aa3ad">FOTO DE PERGOLA INSTALADA</text>
</svg>